<svg id="Layer_1" data-name="Layer 1" xmlns="http://www.w3.org/2000/svg" viewBox="0 0 100 130"><defs><style>.cls-1{fill:#191970;}.cls-2{fill:none;stroke:#191970;stroke-linecap:round;stroke-linejoin:round;stroke-width:2px;}</style></defs><title>code</title><path class="cls-1" d="M50,31.88a48,48,0,1,1-48,48,48.05,48.05,0,0,1,48-48m0-2a50,50,0,1,0,50,50,50,50,0,0,0-50-50Z"/><polygon class="cls-2" points="33.34 98.1 11.14 80.33 33.38 63.22 37.02 67.94 20.8 80.43 37.05 93.45 33.34 98.1"/><polygon class="cls-2" points="66.53 98.14 62.91 93.41 79.19 80.93 62.85 67.91 66.56 63.25 88.86 81.02 66.53 98.14"/><rect class="cls-2" x="22.55" y="76.9" width="55.13" height="5.95" transform="translate(-40.99 104.19) rotate(-72.84)"/></svg>