<svg id="Layer_1" data-name="Layer 1" xmlns="http://www.w3.org/2000/svg" viewBox="0 0 100 100.5"><defs><style>.cls-1{fill:none;stroke:#191970;stroke-linecap:round;stroke-linejoin:round;stroke-width:2px;}.cls-2{fill:#191970;}</style></defs><title>pen</title><path class="cls-1" d="M59.68,36.18,22,22.38l20.44,20.4,4.18.91A2.77,2.77,0,0,1,48,48.41,2.82,2.82,0,0,1,43.26,47l-.82-4.07L22,22.38,35.79,60.05a7.56,7.56,0,0,0,5.15,4.7L54.2,68.27,67.91,54.56,64.37,41.31A7.58,7.58,0,0,0,59.68,36.18Z"/><rect class="cls-1" x="47.22" y="59.71" width="35.91" height="11.67" rx="3.88" ry="3.88" transform="translate(-27.26 65.29) rotate(-45)"/><path class="cls-2" d="M50,2.38a48,48,0,1,1-48,48,48.05,48.05,0,0,1,48-48m0-2a50,50,0,1,0,50,50,50,50,0,0,0-50-50Z"/></svg>