<svg id="Layer_1" data-name="Layer 1" xmlns="http://www.w3.org/2000/svg" viewBox="0 0 100 130"><defs><style>.cls-1{fill:#191970;}.cls-2{fill:none;stroke:#191970;stroke-linecap:round;stroke-linejoin:round;stroke-width:2px;}</style></defs><title>proto</title><path class="cls-1" d="M50,31.88a48,48,0,1,1-48,48,48.05,48.05,0,0,1,48-48m0-2a50,50,0,1,0,50,50,50,50,0,0,0-50-50Z"/><path class="cls-2" d="M70.63,92.62,77.8,93,80,87l-5.92-4.43a25.64,25.64,0,0,0,.14-2.64A24.24,24.24,0,0,0,74,76.63l5.79-4.34-2.16-6.05-7.36.42a24.21,24.21,0,0,0-3.88-4.57l1.65-7-5.57-3.21L57.24,56.8a24.56,24.56,0,0,0-6.14-1.07L48,49.5l-6.33,1.12-.81,6.89a23.31,23.31,0,0,0-5.66,3.27L29,58.12l-4.13,4.93,3.69,5.62A24.58,24.58,0,0,0,26.27,75L20,76.89v6.43l6.38,1.92a24.4,24.4,0,0,0,2.41,6.33L25.18,97,29.31,102l6.22-2.71a24,24,0,0,0,5.81,3.2l.8,6.68,6.32,1.11,3.17-6.14a24.43,24.43,0,0,0,6.22-1.24l5.08,4.77,5.56-3.21-1.66-7.06A24.55,24.55,0,0,0,70.63,92.62ZM37.87,79.92A12.13,12.13,0,1,1,50,92.05h0A12.13,12.13,0,0,1,37.87,79.92Z"/></svg>