<svg id="Layer_1" data-name="Layer 1" xmlns="http://www.w3.org/2000/svg" viewBox="0 0 100 130"><defs><style>.cls-1{fill:#191970;}.cls-2{fill:none;stroke:#191970;stroke-linecap:round;stroke-linejoin:round;stroke-width:2px;}</style></defs><title>psd</title><path class="cls-1" d="M50,31.88a48,48,0,1,1-48,48,48.05,48.05,0,0,1,48-48m0-2a50,50,0,1,0,50,50,50,50,0,0,0-50-50Z"/><path class="cls-2" d="M49.9,76.18A30.52,30.52,0,0,0,57,83.29"/><path class="cls-2" d="M79.58,53.5c-2.39-2.38-14.46,5.87-27,18.37A91.11,91.11,0,0,0,37.25,92.61a4.61,4.61,0,0,1,.93.43,4.36,4.36,0,0,1,1.45,1.1,6.13,6.13,0,0,1,1.11,1.65A91,91,0,0,0,61.31,80.57C73.82,68,82,55.87,79.58,53.5Z"/><path class="cls-2" d="M41.25,98.4c0,2.13-2,3.91-4,5.53a12.7,12.7,0,0,1-12,2A11.81,11.81,0,0,1,20,102.73c5.36.6,6.89-.33,9.78-6.71a6.1,6.1,0,0,1,8-3.18l.41.2a4.46,4.46,0,0,1,1.45,1.1A5.63,5.63,0,0,1,41.25,98.4Z"/></svg>