<svg id="Layer_1" data-name="Layer 1" xmlns="http://www.w3.org/2000/svg" viewBox="0 0 100 130"><defs><style>.cls-1{fill:#191970;}.cls-2{fill:none;stroke:#191970;stroke-linecap:round;stroke-linejoin:round;stroke-width:2px;}</style></defs><title>sketch</title><path class="cls-1" d="M50,32A48,48,0,1,1,2,80,48.05,48.05,0,0,1,50,32m0-2a50,50,0,1,0,50,50A50,50,0,0,0,50,30Z"/><polyline class="cls-2" points="33.3 54.43 50.04 52.54 67.04 54.59"/><polygon class="cls-2" points="49.96 107.46 68.24 71.93 50.04 52.54 32.11 71.93 49.96 107.46"/><line class="cls-2" x1="32.11" y1="71.93" x2="68.24" y2="71.93"/><polygon class="cls-2" points="80 71.93 67.04 54.59 68.24 71.93 80 71.93"/><polygon class="cls-2" points="33.3 54.43 20 71.93 32.11 71.93 33.3 54.43"/><polyline class="cls-2" points="20 71.93 49.96 107.46 80 71.93"/></svg>