<svg id="Layer_1" data-name="Layer 1" xmlns="http://www.w3.org/2000/svg" viewBox="0 0 100 130"><defs><style>.cls-1{fill:none;stroke:#191970;stroke-linecap:round;stroke-linejoin:round;stroke-width:2px;}.cls-2{fill:#191970;}</style></defs><title>wire</title><path class="cls-1" d="M49.65,90.05,33.94,105.92A1.36,1.36,0,0,1,32,106l-.07-.08-7.73-7.78a1.33,1.33,0,0,1-.08-1.9.6.6,0,0,1,.08-.08L39.73,80.45"/><path class="cls-1" d="M50.14,69.87l15.63-15.8a2.37,2.37,0,0,1,3.31,0l6.41,6.54a2.34,2.34,0,0,1,.09,3.3l0,0-.49.5L60.23,79.38"/><line class="cls-1" x1="69.49" y1="64.08" x2="72.22" y2="66.81"/><line class="cls-1" x1="64.78" y1="68.87" x2="67.5" y2="71.6"/><line class="cls-1" x1="60.06" y1="73.59" x2="62.79" y2="76.4"/><line class="cls-1" x1="43.53" y1="90.29" x2="46.25" y2="93.1"/><line class="cls-1" x1="38.73" y1="95.09" x2="41.46" y2="97.9"/><line class="cls-1" x1="34.02" y1="99.89" x2="36.74" y2="102.61"/><polygon class="cls-1" points="72.22 92.19 61.88 102.53 33.94 74.33 44.27 64 72.22 92.19"/><path class="cls-1" d="M44.1,64.08l-10,10.09a2.37,2.37,0,0,1-3.31,0h0a2.42,2.42,0,0,1,0-3.4l10-10.08a2.34,2.34,0,0,1,3.3,0h0A2.45,2.45,0,0,1,44.1,64.08Z"/><path class="cls-1" d="M40.88,60.61,30.54,71l-5.29-5.29a3.21,3.21,0,0,1,0-4.54h0L31,55.4a3.27,3.27,0,0,1,4.55,0Z"/><line class="cls-1" x1="39.06" y1="69.12" x2="67.01" y2="97.41"/><polygon class="cls-1" points="61.88 102.53 75.03 105.43 72.22 92.19 61.88 102.53"/><path class="cls-2" d="M75,101.38a4,4,0,0,0-4,3.91v0C75.61,106.58,76.11,105.18,75,101.38Z"/><path class="cls-2" d="M50,31.88a48,48,0,1,1-48,48,48.05,48.05,0,0,1,48-48m0-2a50,50,0,1,0,50,50,50,50,0,0,0-50-50Z"/></svg>