<svg id="Layer_1" data-name="Layer 1" xmlns="http://www.w3.org/2000/svg" xmlns:xlink="http://www.w3.org/1999/xlink" viewBox="0 0 800 800"><defs><style>.cls-1{fill:none;}.cls-2{fill:#ff8000;}.cls-3{fill:#191970;}.cls-4{clip-path:url(#clip-path);}.cls-5{clip-path:url(#clip-path-2);}</style><clipPath id="clip-path"><path class="cls-1" d="M690.23,62.15V188.89H343.07V372.71H494.49A102.78,102.78,0,0,1,597.27,475.49v23.95H343.07V737.85H157.77v-628a47.71,47.71,0,0,1,47.71-47.7H690.23M718.87,33.5H197.48a68.35,68.35,0,0,0-68.35,68.35V766.5H371.72V528.09H625.91V470.8A126.73,126.73,0,0,0,499.18,344.06H371.72V217.53H718.87V33.5Z"/></clipPath><clipPath id="clip-path-2"><path class="cls-1" d="M-61.34-23.58C154.22-239.13,934.8,541.46,719.25,757S-276.89,192-61.34-23.58Z"/></clipPath></defs><title>big-f</title><path class="cls-2" d="M690.23,62.15V188.89H343.07V372.71H494.49A102.78,102.78,0,0,1,597.27,475.49v23.95H343.07V737.85H157.77v-628a47.71,47.71,0,0,1,47.71-47.7H690.23"/><path class="cls-3" d="M690.23,62.15V188.89H343.07V372.71H494.49A102.78,102.78,0,0,1,597.27,475.49v23.95H343.07V737.85H157.77v-628a47.71,47.71,0,0,1,47.71-47.7H690.23M718.87,33.5H197.48a68.35,68.35,0,0,0-68.35,68.35V766.5H371.72V528.09H625.91V470.8A126.73,126.73,0,0,0,499.18,344.06H371.72V217.53H718.87V33.5Z"/><g class="cls-4"><path class="cls-2" d="M-61.34-23.58C154.22-239.13,934.8,541.46,719.25,757S-276.89,192-61.34-23.58Z"/></g><g class="cls-5"><path class="cls-3" d="M690.23,62.15V188.89H343.07V372.71H494.49A102.78,102.78,0,0,1,597.27,475.49v23.95H343.07V737.85H157.77v-628a47.71,47.71,0,0,1,47.71-47.7H690.23"/></g></svg>