<?xml version="1.0" encoding="utf-8"?>
<!-- Generator: Adobe Illustrator 22.0.1, SVG Export Plug-In . SVG Version: 6.00 Build 0)  -->
<svg version="1.1" id="Layer_1" xmlns="http://www.w3.org/2000/svg" xmlns:xlink="http://www.w3.org/1999/xlink" x="0px" y="0px"
	 viewBox="0 0 150 150" style="enable-background:new 0 0 150 150;" xml:space="preserve">
<style type="text/css">
	.st0{fill:#002B52;}
	.st1{fill:#FF4848;}
	.st2{fill:#FCFBE3;}
</style>
<g id="Layer_2_1_">
</g>
<path class="st0" d="M120.6,0H29.4C13.2,0,0,13.2,0,29.4v91.2C0,136.8,13.2,150,29.4,150h91.2c16.2,0,29.4-13.2,29.4-29.4V29.4
	C150,13.2,136.8,0,120.6,0z"/>
<g>
	<path class="st1" d="M86.8,63.2L63.2,86.8L38,61.6c-6.5-6.5-6.5-17.1,0-23.6l0,0c6.5-6.5,17.1-6.5,23.6,0L86.8,63.2z"/>
	<path class="st2" d="M63.2,86.8l23.6-23.6L112,88.4c6.5,6.5,6.5,17.1,0,23.6l0,0c-6.5,6.5-17.1,6.5-23.6,0L63.2,86.8z"/>
</g>
</svg>
