<svg id="Layer_1" data-name="Layer 1" xmlns="http://www.w3.org/2000/svg" viewBox="0 0 448.3 158"><defs><style>.cls-1{fill:#ff6e2e;}.cls-2{fill:#014577;}</style></defs><title>ico</title><path class="cls-1" d="M176.5,28.7,186.2,8A5.31,5.31,0,0,0,181.3.4H74.9A24.9,24.9,0,0,0,52.3,14.8L2.4,121.1a25.56,25.56,0,0,0,23.2,36.4h0a5.34,5.34,0,0,0,4.8-3l27.54-57a5,5,0,0,1,4.5-2.82H142a5.26,5.26,0,0,0,4.8-3.1l9.9-20.7a5.37,5.37,0,0,0-4.8-7.7H80.74a5,5,0,0,1-4.53-7.11l10-21.4a5,5,0,0,1,4.53-2.89H171.6A5.41,5.41,0,0,0,176.5,28.7Z"/><path class="cls-1" d="M129.2,158.1,202.7.7H245L178.8,143.5A25.17,25.17,0,0,1,156.2,158Z"/><path class="cls-2" d="M321.1,158.1,247.7.7H202.9l66.2,142.8A25.17,25.17,0,0,0,291.7,158Z"/><path class="cls-2" d="M400.9,23.9l-4.2-9.2A24.78,24.78,0,0,0,374,0H297.7a25,25,0,0,0-22.6,35.6l26.2,56a5.41,5.41,0,0,0,4.9,3.1h79a5,5,0,0,1,4.53,2.89l9.95,21.4a5,5,0,0,1-4.53,7.11H325.7a5.38,5.38,0,0,0-4.9,7.6l9.4,20.7a5.41,5.41,0,0,0,4.9,3.1h88.2a25,25,0,0,0,22.6-35.6L425,77.3a24.9,24.9,0,0,0-22.6-14.4H336.9a5,5,0,0,1-4.54-2.9l-9.88-21.4A5,5,0,0,1,327,31.5H396.2A5.33,5.33,0,0,0,400.9,23.9Z"/></svg>