<?xml version="1.0" encoding="utf-8"?>
<!-- Generator: Adobe Illustrator 22.0.1, SVG Export Plug-In . SVG Version: 6.00 Build 0)  -->
<svg version="1.1" id="Layer_1" xmlns="http://www.w3.org/2000/svg" xmlns:xlink="http://www.w3.org/1999/xlink" x="0px" y="0px"
	 viewBox="0 0 150 150" style="enable-background:new 0 0 150 150;" xml:space="preserve">
<style type="text/css">
	.st0{fill:#002B52;}
	.st1{fill:#FF4848;}
	.st2{fill:#FCFBE3;}
	.st3{fill:#FF6E2E;}
	.st4{fill:#014577;}
	.st5{fill:#16243C;}
</style>
<path class="st0" d="M120.6,0H29.4C13.2,0,0,13.2,0,29.4v91.2C0,136.8,13.2,150,29.4,150h91.2c16.2,0,29.4-13.2,29.4-29.4V29.4
	C150,13.2,136.8,0,120.6,0z"/>
<g id="Layer_2_1_">
</g>
<path class="st0" d="M599.3,0h-91.2c-16.2,0-29.4,13.2-29.4,29.4v91.2c0,16.2,13.2,29.4,29.4,29.4h91.2c16.2,0,29.4-13.2,29.4-29.4
	V29.4C628.7,13.2,615.5,0,599.3,0z"/>
<g>
	<path class="st1" d="M530.1,75l23.6-23.6l37,37c6.5,6.5,6.5,17.1,0,23.6l0,0c-6.5,6.5-17.1,6.5-23.6,0L530.1,75z"/>
	<path class="st2" d="M553.7,51.4L530.1,75l-13.4-13.4c-6.5-6.5-6.5-17.1,0-23.6l0,0c6.5-6.5,17.1-6.5,23.6,0L553.7,51.4z"/>
</g>
<g>
	<path class="st1" d="M553.7,98.6L530.1,75l37-37c6.5-6.5,17.1-6.5,23.6,0l0,0c6.5,6.5,6.5,17.1,0,23.6L553.7,98.6z"/>
	<path class="st2" d="M530.1,75l23.6,23.6L540.3,112c-6.5,6.5-17.1,6.5-23.6,0l0,0c-6.5-6.5-6.5-17.1,0-23.6L530.1,75z"/>
</g>
<path class="st3" d="M176.5-165.1l9.7-20.7c1.7-3.6-0.9-7.6-4.9-7.6H74.9c-9.7,0-18.5,5.6-22.6,14.4L2.4-72.7
	c-7.9,17,4.4,36.4,23.2,36.4l0,0c2.1,0,3.9-1.2,4.8-3l27.5-57c0.8-1.7,2.6-2.8,4.5-2.8H142c2.1,0,3.9-1.2,4.8-3.1l9.9-20.7
	c1.7-3.6-0.9-7.7-4.8-7.7H80.7c-3.7,0-6.1-3.8-4.5-7.1l10-21.4c0.8-1.8,2.6-2.9,4.5-2.9h80.9C173.7-162,175.6-163.2,176.5-165.1z"/>
<path class="st3" d="M129.2-35.7l73.5-157.4H245L178.8-50.3c-4.1,8.8-12.9,14.4-22.6,14.5L129.2-35.7z"/>
<path class="st4" d="M321.1-35.7l-73.4-157.4h-44.8l66.2,142.8c4.1,8.8,12.9,14.4,22.6,14.5L321.1-35.7z"/>
<path class="st5" d="M269.1,139.7"/>
<path class="st4" d="M400.9-169.9l-4.2-9.2c-4-9-12.9-14.7-22.7-14.7h-76.3c-18.3,0-30.4,19-22.6,35.6l26.2,56
	c0.9,1.9,2.8,3.1,4.9,3.1h79c1.9,0,3.7,1.1,4.5,2.9l10,21.4c1.5,3.3-0.9,7.1-4.5,7.1h-69.5c-3.9,0-6.5,4-4.9,7.6l9.4,20.7
	c0.9,1.9,2.8,3.1,4.9,3.1h88.2c18.3,0,30.4-19,22.6-35.6L425-116.5c-4.1-8.8-12.9-14.4-22.6-14.4h-65.5c-1.9,0-3.7-1.1-4.5-2.9
	l-9.9-21.4c-1.5-3.3,0.9-7.1,4.5-7.1h69.2C400-162.4,402.6-166.4,400.9-169.9z"/>
<g>
	<g>
		<path class="st2" d="M35.9,31.4h73.8v23H66.2v15.8h40.7v23H66.2v29.8H35.9V31.4z"/>
	</g>
	<g>
		<path class="st0" d="M38,29.2h73.8v23H68.4v15.8h40.7v23H68.4v29.8H38V29.2z"/>
	</g>
	<g>
		<path class="st1" d="M40.4,26.9h73.8v23H70.7v15.8h40.7v23H70.7v29.8H40.4V26.9z"/>
	</g>
</g>
</svg>
