<?xml version="1.0" encoding="utf-8"?>
<!-- Generator: Adobe Illustrator 22.0.1, SVG Export Plug-In . SVG Version: 6.00 Build 0)  -->
<svg version="1.1" xmlns="http://www.w3.org/2000/svg" xmlns:xlink="http://www.w3.org/1999/xlink" x="0px" y="0px"
	 viewBox="0 0 150 130" style="enable-background:new 0 0 150 130;" xml:space="preserve">
<style type="text/css">
	.st0{fill:#FF9E3E;}
</style>
<g id="Layer_2">
</g>
<g id="Layer_1">
	<path class="st0" d="M246,1.6h-59.1c-10.5,0-19,8.5-19,19v108.7H265V20.7C265,10.2,256.5,1.6,246,1.6z M201.6,30l-19.5,8.1v-6
		l12.6-4.2l1.3-0.4l-1.3-0.4l-12.6-4.2V17l19.5,8.1V30z M222.9,41.5h-20.1v-4.9h20.1V41.5z"/>
	<path class="st0" d="M396.1,1.6H337c-10.5,0-19,8.5-19,19v108.7h97.2V20.7C415.2,10.2,406.7,1.6,396.1,1.6z M350.5,17.7
		c3.2,0,5.9,2.5,5.9,5.8c0,3.3-2.7,5.9-5.9,5.9c-3.2,0-5.9-2.5-5.9-5.9C344.5,20.2,347.3,17.7,350.5,17.7z M390.2,73.6
		c-6,0-8.9-3.6-8.9-8.5c0-1.4,0.2-2.9,0.6-4.4l2.9-10.3c0.3-1.1,0.4-2.2,0.4-3.1c0-3.3-2-5.3-5.2-5.3c-4.1,0-6.8,2.9-8.2,8.6
		l-5.6,22.4h-9.8l1.8-7c-2.9,4.7-6.9,7.6-11.8,7.6c-5.9,0-8.7-3.4-8.7-8.6c0-1.3,0.2-2.9,0.5-4.4h0l4.5-18.2h-6.9l2.1-7.7h16.6
		l-6.5,26c-0.4,1.7-0.6,3-0.6,4c0,1.7,0.8,2.1,2.1,2.4c0.8,0.2,7,0.1,10.4-7.5l4.3-17.2h-7l2.1-7.7h14.9l-1.9,8.8
		c2.6-4.9,7.9-9.5,13-9.5c5.5,0,10,3.9,10,11.4c0,1.9-0.3,4-1,6.4l-2.8,10c-0.3,1.1-0.4,1.9-0.4,2.7c0,1.7,0.7,2.6,2,2.6
		c1.3,0,3-1,4.9-6.3l3.8,1.5C399.5,70.3,395.4,73.6,390.2,73.6z"/>
	<g>
		<path class="st0" d="M496.6,51.1l-11.9-9.7l22.7,28.6l-10.7-18.3C496.7,51.6,496.7,51.3,496.6,51.1z"/>
		<path class="st0" d="M503.2,27.5l-12.4-6.7L481,34.4c0,0,0.1,0,0.1,0L498,48.3L503.2,27.5z"/>
		<polygon class="st0" points="500.8,52.5 519.6,84.7 538.4,52.5 		"/>
		<polygon class="st0" points="534.1,25 545.2,19 534.2,14.2 505,14.2 494,19 505.1,25 		"/>
		<polygon class="st0" points="500.9,49.5 539.2,49.5 533,28 506.2,28 		"/>
		<path class="st0" d="M549.1,1.6H490c-10.5,0-19,8.5-19,19v108.7h97.2V20.7C568.2,10.2,559.7,1.6,549.1,1.6z M562.4,36
			c0,0.1-0.1,0.3-0.1,0.4c0,0,0,0.1-0.1,0.1c0,0,0,0.1-0.1,0.1l-41.4,52.1c0,0,0,0,0,0c-0.1,0.2-0.3,0.3-0.5,0.4c0,0-0.1,0-0.1,0
			c-0.2,0.1-0.4,0.1-0.6,0.1c-0.2,0-0.4-0.1-0.6-0.1c0,0-0.1,0-0.1,0c-0.2-0.1-0.3-0.2-0.5-0.4c0,0,0,0,0,0L477,36.6
			c0,0,0-0.1-0.1-0.1c0,0-0.1-0.1-0.1-0.1c-0.1-0.1-0.1-0.3-0.1-0.4c0,0,0-0.1,0-0.1c0-0.2,0-0.3,0-0.5c0,0,0-0.1,0-0.1
			c0-0.1,0-0.2,0.1-0.2c0-0.1,0.1-0.1,0.1-0.1c0,0,0-0.1,0-0.1l11.5-16.1c0.2-0.2,0.4-0.4,0.6-0.5c0.2-0.3,0.4-0.6,0.8-0.8l14.2-6.1
			c0.2-0.1,0.4-0.1,0.6-0.1h29.9c0.2,0,0.4,0,0.6,0.1l14.2,6.1c0.4,0.2,0.6,0.5,0.8,0.8c0.2,0.1,0.5,0.3,0.6,0.5l11.5,16.1
			c0,0,0,0.1,0,0.1c0,0,0.1,0.1,0.1,0.1c0,0.1,0.1,0.2,0.1,0.2c0,0,0,0.1,0,0.1c0,0.2,0,0.3,0,0.5C562.5,35.9,562.4,36,562.4,36z"/>
		<path class="st0" d="M542.4,51.8l-10.7,18.3l22.7-28.6l-11.9,9.7C542.5,51.3,542.5,51.6,542.4,51.8z"/>
		<path class="st0" d="M536,27.4l5.9,20.3l16.2-13.2c0,0,0.1,0,0.1,0l-9.8-13.7L536,27.4z"/>
	</g>
	<g>
		<path class="st0" d="M653.9,56.2c0.4,0.4,0.9,0.8,1.3,1.2c0.1-1,0.3-2,0.5-2.9V38.3c-0.6,0-1.2,0.1-1.8,0.2V56.2z"/>
		<path class="st0" d="M661.9,69.8h14.7c0.4-0.7,0.7-1.4,1-2.2h-16.6C661.2,68.4,661.5,69.1,661.9,69.8z"/>
		<path class="st0" d="M651.2,53.2c0.5,0.8,1.1,1.5,1.8,2.1V38.7c-0.6,0.1-1.2,0.3-1.8,0.4V53.2z"/>
		<path class="st0" d="M663.9,73.1h10.6c0.5-0.7,1-1.4,1.5-2.2h-13.5C662.9,71.7,663.4,72.4,663.9,73.1z"/>
		<path class="st0" d="M667,76.3h4.5c0.8-0.7,1.5-1.4,2.2-2.2h-8.9C665.5,75,666.2,75.7,667,76.3z"/>
		<path class="st0" d="M648.6,48.3c0.5,1.2,1.1,2.4,1.8,3.6V39.4c-0.6,0.2-1.2,0.4-1.8,0.7V48.3z"/>
		<path class="st0" d="M669.2,78.1c0.3-0.2,0.6-0.4,0.9-0.6h-1.8C668.6,77.7,668.9,77.9,669.2,78.1z"/>
		<path class="st0" d="M656.5,38.3v13c0.5-1.4,1.1-2.7,1.8-4v-9.1c-0.3,0-0.7,0-1,0C657,38.3,656.8,38.3,656.5,38.3z"/>
		<path class="st0" d="M683,24.1h-28.4c-0.8,0.7-1.5,1.4-2.2,2.2h32.8C684.5,25.5,683.8,24.8,683,24.1z"/>
		<path class="st0" d="M678,20.9h-18.5c-1.3,0.6-2.5,1.3-3.6,2.2h25.7C680.5,22.2,679.3,21.5,678,20.9z"/>
		<path class="st0" d="M668.8,18.8c-2.2,0-4.4,0.4-6.4,1h12.8C673.2,19.1,671,18.8,668.8,18.8z"/>
		<path class="st0" d="M648.1,33.9c-0.2,0.6-0.3,1.2-0.5,1.8c2.5-1,5.1-1.6,7.9-1.8H648.1z"/>
		<path class="st0" d="M647.7,45.5v-5c-0.2,0.1-0.4,0.2-0.6,0.3C647.1,42.4,647.3,44,647.7,45.5z"/>
		<path class="st0" d="M686.1,27.4h-34.6c-0.5,0.7-1,1.4-1.4,2.2h37.4C687.1,28.8,686.6,28.1,686.1,27.4z"/>
		<path class="st0" d="M688.1,30.6h-38.7c-0.4,0.7-0.7,1.4-0.9,2.2h40.6C688.8,32.1,688.5,31.3,688.1,30.6z"/>
		<path class="st0" d="M660.1,65.1c0.1,0.5,0.3,0.9,0.4,1.4h6.7C664.8,66.4,662.4,65.9,660.1,65.1z"/>
		<path class="st0" d="M687.5,51.4c0.7-1.2,1.3-2.5,1.8-3.9v-7.7c-0.6-0.2-1.2-0.4-1.8-0.6V51.4z"/>
		<path class="st0" d="M684.9,55c0.6-0.7,1.2-1.5,1.8-2.2V39c-0.6-0.2-1.2-0.3-1.8-0.4V55z"/>
		<path class="st0" d="M682.2,52.3c0.4,1.4,0.8,2.9,1,4.5c0.3-0.2,0.5-0.5,0.8-0.7V38.5c-0.6-0.1-1.2-0.1-1.8-0.2V52.3z"/>
		<path class="st0" d="M690.2,40.2v3.8c0.2-1.2,0.3-2.4,0.3-3.6c0,0,0-0.1,0-0.1C690.4,40.3,690.3,40.3,690.2,40.2z"/>
		<path class="st0" d="M698.8,1.6h-59.1c-10.5,0-19,8.5-19,19v108.7h97.2V20.7C717.8,10.2,709.3,1.6,698.8,1.6z M683.9,86
			c-5.3,0.5-10.4-0.5-14.7-2.8c-4.7,2.4-10.3,3.5-16.1,2.6c-11.5-1.8-20.5-11.2-21.8-22.7c-1.2-10.3,3.6-19.6,11.4-24.9
			c1.1-13.4,12.4-23.9,26-23.9c10.5,0,19.6,6.2,23.7,15.2h0.1v0.3c1.1,2.4,1.8,5.1,2.1,7.8c8.3,5,13.5,14.5,12.4,25.1
			C705.9,74.9,696.1,84.7,683.9,86z"/>
		<path class="st0" d="M682.8,33.9c2.5,0.1,4.9,0.6,7.1,1.4c-0.1-0.5-0.3-1-0.4-1.4H682.8z"/>
		<path class="st0" d="M679.6,38.3v8c0.7,1.1,1.3,2.3,1.8,3.4V38.3c0,0-0.1,0-0.1,0C680.6,38.3,680.1,38.3,679.6,38.3z"/>
		<path class="st0" d="M669.2,41.9c-5.9,3.9-9.7,10.5-9.7,18.1c0,0,0,0.1,0,0.1c2.8,1.3,6,2.1,9.3,2.1c3.6,0,6.9-0.9,9.9-2.4v-3.3
			C677.7,50.4,674.2,45.2,669.2,41.9z"/>
		<path class="st0" d="M661.9,38.8v3.7c0.6-0.6,1.2-1.2,1.8-1.8v-1.4C663,39.1,662.5,38.9,661.9,38.8z"/>
		<path class="st0" d="M667.9,36.1h2.8c2.7-1.2,5.7-2,8.8-2.2h-20.3C662.2,34.1,665.1,34.9,667.9,36.1z"/>
		<path class="st0" d="M677.9,66.6c0.2-0.6,0.4-1.2,0.5-1.8c-2.5,1-5.1,1.6-7.9,1.8H677.9z"/>
		<path class="st0" d="M661,38.6c-0.6-0.1-1.2-0.2-1.8-0.2v7.5c0.5-0.8,1.1-1.7,1.8-2.4V38.6z"/>
		<path class="st0" d="M664.5,39.9c0.1-0.1,0.2-0.2,0.3-0.3c-0.1,0-0.2-0.1-0.3-0.1V39.9z"/>
		<path class="st0" d="M676.9,42.8c0.6,0.7,1.2,1.5,1.8,2.2v-6.6c-0.6,0.1-1.2,0.2-1.8,0.3V42.8z"/>
		<path class="st0" d="M674.3,39.4v0.7c0.6,0.5,1.2,1.1,1.8,1.7v-2.9C675.4,39.1,674.8,39.2,674.3,39.4z"/>
	</g>
	<g>
		<path class="st0" d="M771,27.3v102h97.2v-102H771z M782.3,40.5c0-2.6,2.1-4.7,4.7-4.7h29.1c2.6,0,4.7,2.1,4.7,4.7v14.7
			c0,2.6-2.1,4.7-4.7,4.7h-29.1c-2.6,0-4.7-2.1-4.7-4.7V40.5z M806.5,85.4c0,2.6-2.1,4.7-4.7,4.7h-14.7c-2.6,0-4.7-2.1-4.7-4.7V70.7
			c0-2.6,2.1-4.7,4.7-4.7h14.7c2.6,0,4.7,2.1,4.7,4.7V85.4z M852.9,85.4c0,2.6-2.1,4.7-4.7,4.7H819c-2.6,0-4.7-2.1-4.7-4.7V70.7
			c0-2.6,2.1-4.7,4.7-4.7h29.1c2.6,0,4.7,2.1,4.7,4.7V85.4z M852.9,55.2c0,2.6-2.1,4.7-4.7,4.7h-14.7c-2.6,0-4.7-2.1-4.7-4.7V40.5
			c0-2.6,2.1-4.7,4.7-4.7h14.7c2.6,0,4.7,2.1,4.7,4.7V55.2z"/>
		<path class="st0" d="M849.1,1.6H790c-10.5,0-19,8.5-19,19v3.7h97.2v-3.7C868.2,10.2,859.7,1.6,849.1,1.6z M786.6,20.8
			c-2.1,0-3.8-1.7-3.8-3.8c0-2.1,1.7-3.8,3.8-3.8c2.1,0,3.8,1.7,3.8,3.8C790.4,19.1,788.7,20.8,786.6,20.8z M796.8,20.8
			c-2.1,0-3.8-1.7-3.8-3.8c0-2.1,1.7-3.8,3.8-3.8c2.1,0,3.8,1.7,3.8,3.8C800.5,19.1,798.8,20.8,796.8,20.8z M806.9,20.8
			c-2.1,0-3.8-1.7-3.8-3.8c0-2.1,1.7-3.8,3.8-3.8s3.8,1.7,3.8,3.8C810.7,19.1,809,20.8,806.9,20.8z"/>
	</g>
	<g>
		<path class="st0" d="M68.4,51c-0.9-0.1-1.7-0.1-2.6-0.1c0.1,0.9,0.1,1.7,0.1,2.6c0.9,0.1,1.7,0.1,2.6,0.1
			C68.4,52.8,68.4,51.9,68.4,51z"/>
		<path class="st0" d="M81.1,38.6c-10.2-1-23.1-5.3-32.8-9.1L64,45.3c1.6,0.2,4.9,0.5,6.9,0.4c0.8-0.1,1.6,0.3,2.1,0.8
			c0.6,0.6,0.9,1.3,0.8,2.1c-0.1,2.2,0.3,6.4,0.5,7.9c0.1,0.9-0.2,1.6-0.8,2.3c-0.5,0.5-1.1,0.8-1.9,0.8c-0.1,0-0.2,0-0.4,0
			c-0.1,0-5.2-0.6-7.9-0.5c-0.8,0.1-1.5-0.3-2.1-0.8c-0.6-0.6-0.9-1.3-0.8-2.1c0.1-1.9-0.2-5.1-0.4-7L44.4,33.5
			c3.8,9.7,8.1,22.4,9.1,32.7l21,3.7l10.2-10.2L81.1,38.6z"/>
		<path class="st0" d="M89.8,62.2c-0.1,0.1-0.2,0.2-0.3,0.3L77.3,74.7c-0.1,0.1-0.2,0.2-0.3,0.2l-2,2l2.7,2.7l16.8-16.8l-2.7-2.7
			L89.8,62.2z"/>
		<path class="st0" d="M98.5,0.7H35.7c-11.2,0-20.2,9.7-20.2,21.6v108.1h103.3V22.3C118.8,10.4,109.7,0.7,98.5,0.7z M100.3,64.9
			L79.7,85.5c-0.5,0.5-1.2,0.8-1.9,0.8c-0.7,0-1.4-0.3-1.9-0.8L69.2,79c-0.5-0.5-0.8-1.2-0.8-1.9c0-0.7,0.3-1.4,0.8-1.9l0.5-0.5
			l-19.4-3.3c-1.3-0.2-2.2-1.3-2.3-2.6c-0.9-16.5-12.5-42.5-14.6-46.2c-0.6-0.9-0.5-2.2,0.3-3.2c0.7-0.9,1.8-1.2,2.8-0.9
			c0.3,0.1,0.6,0.2,0.9,0.4c3.5,1.9,29.6,13.6,46,14.5c1.3,0.1,2.4,1,2.6,2.3l3.3,19.3l0.5-0.5c0.5-0.5,1.2-0.8,1.9-0.8
			c0.7,0,1.4,0.3,1.9,0.8l6.6,6.6C101.4,62.1,101.4,63.8,100.3,64.9z"/>
	</g>
</g>
</svg>
