<?xml version="1.0" encoding="utf-8"?>
<!-- Generator: Adobe Illustrator 22.0.1, SVG Export Plug-In . SVG Version: 6.00 Build 0)  -->
<svg version="1.1" id="Layer_1" xmlns="http://www.w3.org/2000/svg" xmlns:xlink="http://www.w3.org/1999/xlink" x="0px" y="0px"
	 viewBox="0 0 150 130" style="enable-background:new 0 0 150 130;" xml:space="preserve">
<style type="text/css">
	.st0{fill:#FF9E3E;}
	.st1{fill:none;stroke:#FFFFFF;stroke-width:4;stroke-linecap:round;stroke-linejoin:round;stroke-miterlimit:10;}
	.st2{fill:#FFFFFF;}
	.st3{fill:#F28522;}
	.st4{fill:none;stroke:#FFFFFF;stroke-width:2;stroke-linecap:round;stroke-linejoin:round;stroke-miterlimit:10;}
</style>
<g id="Layer_2_1_">
</g>
<g id="Layer_1_1_">
	<g>
		<path class="st0" d="M-121.5,468.3v102h97.2v-102C-24.3,468.3-121.5,468.3-121.5,468.3z M-110.2,481.5c0-2.6,2.1-4.7,4.7-4.7h29.1
			c2.6,0,4.7,2.1,4.7,4.7v14.7c0,2.6-2.1,4.7-4.7,4.7h-29.1c-2.6,0-4.7-2.1-4.7-4.7V481.5z M-86,526.4c0,2.6-2.1,4.7-4.7,4.7h-14.7
			c-2.6,0-4.7-2.1-4.7-4.7v-14.7c0-2.6,2.1-4.7,4.7-4.7h14.7c2.6,0,4.7,2.1,4.7,4.7V526.4z M-39.6,526.4c0,2.6-2.1,4.7-4.7,4.7
			h-29.2c-2.6,0-4.7-2.1-4.7-4.7v-14.7c0-2.6,2.1-4.7,4.7-4.7h29.1c2.6,0,4.7,2.1,4.7,4.7v14.7H-39.6z M-39.6,496.2
			c0,2.6-2.1,4.7-4.7,4.7H-59c-2.6,0-4.7-2.1-4.7-4.7v-14.7c0-2.6,2.1-4.7,4.7-4.7h14.7c2.6,0,4.7,2.1,4.7,4.7V496.2z"/>
		<path class="st0" d="M-43.4,442.6h-59.1c-10.5,0-19,8.5-19,19v3.7h97.2v-3.7C-24.3,451.2-32.8,442.6-43.4,442.6z M-105.9,461.8
			c-2.1,0-3.8-1.7-3.8-3.8c0-2.1,1.7-3.8,3.8-3.8s3.8,1.7,3.8,3.8C-102.1,460.1-103.8,461.8-105.9,461.8z M-95.7,461.8
			c-2.1,0-3.8-1.7-3.8-3.8c0-2.1,1.7-3.8,3.8-3.8s3.8,1.7,3.8,3.8C-92,460.1-93.7,461.8-95.7,461.8z M-85.6,461.8
			c-2.1,0-3.8-1.7-3.8-3.8c0-2.1,1.7-3.8,3.8-3.8s3.8,1.7,3.8,3.8C-81.8,460.1-83.5,461.8-85.6,461.8z"/>
	</g>
</g>
<g id="Layer_1_6_">
	<g>
		<path class="st0" d="M-88.3,353.2c0.4,0.4,0.9,0.8,1.3,1.2c0.1-1,0.3-2,0.5-2.9v-16.2c-0.6,0-1.2,0.1-1.8,0.2V353.2z"/>
		<path class="st0" d="M-80.3,366.8h14.7c0.4-0.7,0.7-1.4,1-2.2h-16.6C-81,365.4-80.7,366.1-80.3,366.8z"/>
		<path class="st0" d="M-91,350.2c0.5,0.8,1.1,1.5,1.8,2.1v-16.6c-0.6,0.1-1.2,0.3-1.8,0.4V350.2z"/>
		<path class="st0" d="M-78.3,370.1h10.6c0.5-0.7,1-1.4,1.5-2.2h-13.5C-79.3,368.7-78.8,369.4-78.3,370.1z"/>
		<path class="st0" d="M-75.2,373.3h4.5c0.8-0.7,1.5-1.4,2.2-2.2h-8.9C-76.7,372-76,372.7-75.2,373.3z"/>
		<path class="st0" d="M-93.6,345.3c0.5,1.2,1.1,2.4,1.8,3.6v-12.5c-0.6,0.2-1.2,0.4-1.8,0.7V345.3z"/>
		<path class="st0" d="M-73,375.1c0.3-0.2,0.6-0.4,0.9-0.6h-1.8C-73.6,374.7-73.3,374.9-73,375.1z"/>
		<path class="st0" d="M-85.7,335.3v13c0.5-1.4,1.1-2.7,1.8-4v-9.1c-0.3,0-0.7,0-1,0C-85.2,335.3-85.4,335.3-85.7,335.3z"/>
		<path class="st0" d="M-59.2,321.1h-28.4c-0.8,0.7-1.5,1.4-2.2,2.2H-57C-57.7,322.5-58.4,321.8-59.2,321.1z"/>
		<path class="st0" d="M-64.2,317.9h-18.5c-1.3,0.6-2.5,1.3-3.6,2.2h25.7C-61.7,319.2-62.9,318.5-64.2,317.9z"/>
		<path class="st0" d="M-73.4,315.8c-2.2,0-4.4,0.4-6.4,1H-67C-69,316.1-71.2,315.8-73.4,315.8z"/>
		<path class="st0" d="M-94.1,330.9c-0.2,0.6-0.3,1.2-0.5,1.8c2.5-1,5.1-1.6,7.9-1.8H-94.1z"/>
		<path class="st0" d="M-94.5,342.5v-5c-0.2,0.1-0.4,0.2-0.6,0.3C-95.1,339.4-94.9,341-94.5,342.5z"/>
		<path class="st0" d="M-56.1,324.4h-34.6c-0.5,0.7-1,1.4-1.4,2.2h37.4C-55.1,325.8-55.6,325.1-56.1,324.4z"/>
		<path class="st0" d="M-54.1,327.6h-38.7c-0.4,0.7-0.7,1.4-0.9,2.2h40.6C-53.4,329.1-53.7,328.3-54.1,327.6z"/>
		<path class="st0" d="M-82.1,362.1c0.1,0.5,0.3,0.9,0.4,1.4h6.7C-77.4,363.4-79.8,362.9-82.1,362.1z"/>
		<path class="st0" d="M-54.7,348.4c0.7-1.2,1.3-2.5,1.8-3.9v-7.7c-0.6-0.2-1.2-0.4-1.8-0.6V348.4z"/>
		<path class="st0" d="M-57.3,352c0.6-0.7,1.2-1.5,1.8-2.2V336c-0.6-0.2-1.2-0.3-1.8-0.4V352z"/>
		<path class="st0" d="M-60,349.3c0.4,1.4,0.8,2.9,1,4.5c0.3-0.2,0.5-0.5,0.8-0.7v-17.6c-0.6-0.1-1.2-0.1-1.8-0.2V349.3z"/>
		<path class="st0" d="M-52,337.2v3.8c0.2-1.2,0.3-2.4,0.3-3.6v-0.1C-51.8,337.3-51.9,337.3-52,337.2z"/>
		<path class="st0" d="M-43.4,298.6h-59.1c-10.5,0-19,8.5-19,19v108.7h97.2V317.7C-24.4,307.2-32.9,298.6-43.4,298.6z M-58.3,383
			c-5.3,0.5-10.4-0.5-14.7-2.8c-4.7,2.4-10.3,3.5-16.1,2.6c-11.5-1.8-20.5-11.2-21.8-22.7c-1.2-10.3,3.6-19.6,11.4-24.9
			c1.1-13.4,12.4-23.9,26-23.9c10.5,0,19.6,6.2,23.7,15.2h0.1v0.3c1.1,2.4,1.8,5.1,2.1,7.8c8.3,5,13.5,14.5,12.4,25.1
			C-36.3,371.9-46.1,381.7-58.3,383z"/>
		<path class="st0" d="M-59.4,330.9c2.5,0.1,4.9,0.6,7.1,1.4c-0.1-0.5-0.3-1-0.4-1.4H-59.4z"/>
		<path class="st0" d="M-62.6,335.3v8c0.7,1.1,1.3,2.3,1.8,3.4v-11.4h-0.1C-61.6,335.3-62.1,335.3-62.6,335.3z"/>
		<path class="st0" d="M-73,338.9c-5.9,3.9-9.7,10.5-9.7,18.1v0.1c2.8,1.3,6,2.1,9.3,2.1c3.6,0,6.9-0.9,9.9-2.4v-3.3
			C-64.5,347.4-68,342.2-73,338.9z"/>
		<path class="st0" d="M-80.3,335.8v3.7c0.6-0.6,1.2-1.2,1.8-1.8v-1.4C-79.2,336.1-79.7,335.9-80.3,335.8z"/>
		<path class="st0" d="M-74.3,333.1h2.8c2.7-1.2,5.7-2,8.8-2.2H-83C-80,331.1-77.1,331.9-74.3,333.1z"/>
		<path class="st0" d="M-64.3,363.6c0.2-0.6,0.4-1.2,0.5-1.8c-2.5,1-5.1,1.6-7.9,1.8H-64.3z"/>
		<path class="st0" d="M-81.2,335.6c-0.6-0.1-1.2-0.2-1.8-0.2v7.5c0.5-0.8,1.1-1.7,1.8-2.4V335.6z"/>
		<path class="st0" d="M-77.7,336.9c0.1-0.1,0.2-0.2,0.3-0.3c-0.1,0-0.2-0.1-0.3-0.1V336.9z"/>
		<path class="st0" d="M-65.3,339.8c0.6,0.7,1.2,1.5,1.8,2.2v-6.6c-0.6,0.1-1.2,0.2-1.8,0.3V339.8z"/>
		<path class="st0" d="M-67.9,336.4v0.7c0.6,0.5,1.2,1.1,1.8,1.7v-2.9C-66.8,336.1-67.4,336.2-67.9,336.4z"/>
	</g>
</g>
<g id="Layer_1_5_">
	<g>
		<path class="st0" d="M-95.9,198.1l-11.9-9.7l22.7,28.6l-10.7-18.3C-95.8,198.6-95.8,198.3-95.9,198.1z"/>
		<path class="st0" d="M-89.3,174.5l-12.4-6.7l-9.8,13.6h0.1l16.9,13.9L-89.3,174.5z"/>
		<polygon class="st0" points="-91.7,199.5 -72.9,231.7 -54.1,199.5 		"/>
		<polygon class="st0" points="-58.4,172 -47.3,166 -58.3,161.2 -87.5,161.2 -98.5,166 -87.4,172 		"/>
		<polygon class="st0" points="-91.6,196.5 -53.3,196.5 -59.5,175 -86.3,175 		"/>
		<path class="st0" d="M-43.4,148.6h-59.1c-10.5,0-19,8.5-19,19v108.7h97.2V167.7C-24.3,157.2-32.8,148.6-43.4,148.6z M-30.1,183
			c0,0.1-0.1,0.3-0.1,0.4c0,0,0,0.1-0.1,0.1c0,0,0,0.1-0.1,0.1l-41.4,52.1l0,0c-0.1,0.2-0.3,0.3-0.5,0.4h-0.1
			c-0.2,0.1-0.4,0.1-0.6,0.1c-0.2,0-0.4-0.1-0.6-0.1h-0.1c-0.2-0.1-0.3-0.2-0.5-0.4l0,0l-41.3-52.1c0,0,0-0.1-0.1-0.1l-0.1-0.1
			c-0.1-0.1-0.1-0.3-0.1-0.4v-0.1c0-0.2,0-0.3,0-0.5v-0.1c0-0.1,0-0.2,0.1-0.2c0-0.1,0.1-0.1,0.1-0.1v-0.1l11.5-16.1
			c0.2-0.2,0.4-0.4,0.6-0.5c0.2-0.3,0.4-0.6,0.8-0.8l14.2-6.1c0.2-0.1,0.4-0.1,0.6-0.1H-58c0.2,0,0.4,0,0.6,0.1l14.2,6.1
			c0.4,0.2,0.6,0.5,0.8,0.8c0.2,0.1,0.5,0.3,0.6,0.5l11.5,16.1v0.1l0.1,0.1c0,0.1,0.1,0.2,0.1,0.2v0.1
			C-30.1,182.6-30.1,182.7-30.1,183C-30,182.9-30.1,183-30.1,183z"/>
		<path class="st0" d="M-50.1,198.8l-10.7,18.3l22.7-28.6l-11.9,9.7C-50,198.3-50,198.6-50.1,198.8z"/>
		<path class="st0" d="M-56.5,174.4l5.9,20.3l16.2-13.2h0.1l-9.8-13.7L-56.5,174.4z"/>
	</g>
</g>
<g id="Layer_1_4_">
	<path class="st0" d="M-43.4,1.6h-59.1c-10.5,0-19,8.5-19,19v108.7h97.2V20.7C-24.3,10.2-32.8,1.6-43.4,1.6z M-89,17.7
		c3.2,0,5.9,2.5,5.9,5.8s-2.7,5.9-5.9,5.9c-3.2,0-5.9-2.5-5.9-5.9C-95,20.2-92.2,17.7-89,17.7z M-49.3,73.6c-6,0-8.9-3.6-8.9-8.5
		c0-1.4,0.2-2.9,0.6-4.4l2.9-10.3c0.3-1.1,0.4-2.2,0.4-3.1c0-3.3-2-5.3-5.2-5.3c-4.1,0-6.8,2.9-8.2,8.6L-73.3,73h-9.8l1.8-7
		c-2.9,4.7-6.9,7.6-11.8,7.6c-5.9,0-8.7-3.4-8.7-8.6c0-1.3,0.2-2.9,0.5-4.4l0,0l4.5-18.2h-6.9l2.1-7.7H-85l-6.5,26
		c-0.4,1.7-0.6,3-0.6,4c0,1.7,0.8,2.1,2.1,2.4c0.8,0.2,7,0.1,10.4-7.5l4.3-17.2h-7l2.1-7.7h14.9l-1.9,8.8c2.6-4.9,7.9-9.5,13-9.5
		c5.5,0,10,3.9,10,11.4c0,1.9-0.3,4-1,6.4l-2.8,10c-0.3,1.1-0.4,1.9-0.4,2.7c0,1.7,0.7,2.6,2,2.6s3-1,4.9-6.3l3.8,1.5
		C-40,70.3-44.1,73.6-49.3,73.6z"/>
</g>
<g id="Layer_1_3_">
	<path class="st0" d="M-43.4-149.9h-59.1c-10.5,0-19,8.5-19,19v108.7h97.1v-108.6C-24.4-141.3-32.9-149.9-43.4-149.9z M-87.8-121.5
		l-19.5,8.1v-6l12.6-4.2l1.3-0.4l-1.3-0.4l-12.6-4.2v-5.9l19.5,8.1V-121.5z M-66.5-110h-20.1v-4.9h20.1V-110z"/>
</g>
<g id="Layer_1_2_">
	<g>
		<path class="st0" d="M-75.3-251.2c-0.9-0.1-1.7-0.1-2.6-0.1c0.1,0.9,0.1,1.7,0.1,2.6c0.9,0.1,1.7,0.1,2.6,0.1
			C-75.3-249.4-75.3-250.3-75.3-251.2z"/>
		<path class="st0" d="M-62.6-263.6c-10.2-1-23.1-5.3-32.8-9.1l15.7,15.8c1.6,0.2,4.9,0.5,6.9,0.4c0.8-0.1,1.6,0.3,2.1,0.8
			c0.6,0.6,0.9,1.3,0.8,2.1c-0.1,2.2,0.3,6.4,0.5,7.9c0.1,0.9-0.2,1.6-0.8,2.3c-0.5,0.5-1.1,0.8-1.9,0.8c-0.1,0-0.2,0-0.4,0
			c-0.1,0-5.2-0.6-7.9-0.5c-0.8,0.1-1.5-0.3-2.1-0.8c-0.6-0.6-0.9-1.3-0.8-2.1c0.1-1.9-0.2-5.1-0.4-7l-15.6-15.7
			c3.8,9.7,8.1,22.4,9.1,32.7l21,3.7l10.2-10.2L-62.6-263.6z"/>
		<path class="st0" d="M-53.9-240c-0.1,0.1-0.2,0.2-0.3,0.3l-12.2,12.2c-0.1,0.1-0.2,0.2-0.3,0.2l-2,2l2.7,2.7l16.8-16.8l-2.7-2.7
			L-53.9-240z"/>
		<path class="st0" d="M-45.2-301.5H-108c-11.2,0-20.2,9.7-20.2,21.6v108.1h103.3v-108.1C-24.9-291.8-34-301.5-45.2-301.5z
			 M-43.4-237.3L-64-216.7c-0.5,0.5-1.2,0.8-1.9,0.8c-0.7,0-1.4-0.3-1.9-0.8l-6.7-6.5c-0.5-0.5-0.8-1.2-0.8-1.9
			c0-0.7,0.3-1.4,0.8-1.9l0.5-0.5l-19.4-3.3c-1.3-0.2-2.2-1.3-2.3-2.6c-0.9-16.5-12.5-42.5-14.6-46.2c-0.6-0.9-0.5-2.2,0.3-3.2
			c0.7-0.9,1.8-1.2,2.8-0.9c0.3,0.1,0.6,0.2,0.9,0.4c3.5,1.9,29.6,13.6,46,14.5c1.3,0.1,2.4,1,2.6,2.3l3.3,19.3l0.5-0.5
			c0.5-0.5,1.2-0.8,1.9-0.8c0.7,0,1.4,0.3,1.9,0.8l6.6,6.6C-42.3-240.1-42.3-238.4-43.4-237.3z"/>
	</g>
</g>
<path class="st0" d="M98.5-151.2H35.7c-11.2,0-20.2,9.7-20.2,21.6v108.1h103.3v-108.1C118.8-141.5,109.7-151.2,98.5-151.2z"/>
<path class="st0" d="M98.5-301.9H35.7c-11.2,0-20.2,9.7-20.2,21.6v108.1h103.3v-108.1C118.8-292.2,109.7-301.9,98.5-301.9z"/>
<path class="st0" d="M98.5,0.3H35.7c-11.2,0-20.2,9.7-20.2,21.6V130h103.3V21.9C118.8,10,109.7,0.3,98.5,0.3z"/>
<path class="st0" d="M98.5,147.3H35.7c-11.2,0-20.2,9.7-20.2,21.6V277h103.3V168.9C118.8,157,109.7,147.3,98.5,147.3z"/>
<path class="st0" d="M98.5,297.3H35.7c-11.2,0-20.2,9.7-20.2,21.6V427h103.3V318.9C118.8,307,109.7,297.3,98.5,297.3z"/>
<path class="st0" d="M98.5,441.3H35.7c-11.2,0-20.2,9.7-20.2,21.6V571h103.3V462.9C118.8,451,109.7,441.3,98.5,441.3z"/>
<g>
	<path class="st1" d="M39.8-283.7l22.5,22.5l4.6,1c2.4,0.5,3.3,3.5,1.5,5.2l0,0c-1.7,1.7-4.7,0.8-5.2-1.6l-0.9-4.5L39.8-283.7
		l16.7,45.6l18.8,5l15.1-15.1l-5-18.8L39.8-283.7z"/>
	<path class="st1" d="M93.2-251l-20.7,20.7c-2,2-2,5.3,0,7.3l1.8,1.8c2,2,5.3,2,7.3,0l20.7-20.7c2-2,2-5.3,0-7.3l-1.8-1.8
		C98.5-253,95.2-253,93.2-251z"/>
</g>
<g>
	<g>
		<path class="st1" d="M66.3,497.6l-19,19.2c-0.7,0.7-1.7,0.7-2.4,0l-9.4-9.4c-0.7-0.7-0.7-1.8,0-2.4l18.8-19"/>
		<path class="st1" d="M66.9,473.2l18.9-19.1c1.1-1.1,2.9-1.1,4,0l7.8,7.9c1.1,1.1,1.1,2.9,0,4l-0.6,0.6l-17.9,18.1"/>
		<path class="st1" d="M67,473.3"/>
		<path class="st1" d="M54.8,485.6"/>
		<path class="st1" d="M34.4,506.2"/>
		<line class="st1" x1="90.3" y1="466.2" x2="93.6" y2="469.5"/>
		<line class="st1" x1="84.6" y1="472" x2="87.9" y2="475.3"/>
		<line class="st1" x1="78.9" y1="477.7" x2="82.2" y2="481.1"/>
		<line class="st1" x1="58.9" y1="497.9" x2="62.2" y2="501.3"/>
		<line class="st1" x1="53.1" y1="503.7" x2="56.4" y2="507.1"/>
		<line class="st1" x1="47.4" y1="509.5" x2="50.7" y2="512.8"/>
	</g>
	<g>
		<g>
			<polygon class="st1" points="93.6,500.2 81.1,512.7 47.3,478.6 59.8,466.1 			"/>
			<path class="st1" d="M59.6,466.2l-12.1,12.2c-1.1,1.1-2.9,1.1-4,0h0c-1.1-1.1-1.1-2.9,0-4.1l12.1-12.2c1.1-1.1,2.9-1.1,4,0h0
				C60.7,463.3,60.7,465.1,59.6,466.2z"/>
			<path class="st1" d="M55.7,462l-12.5,12.6l-6.4-6.4c-1.5-1.5-1.5-4,0-5.5l7-7c1.5-1.5,4-1.5,5.5,0L55.7,462z"/>
			<line class="st1" x1="53.5" y1="472.3" x2="87.3" y2="506.5"/>
			<polygon class="st1" points="81.1,512.7 97,516.2 93.6,500.2 			"/>
		</g>
		<path class="st2" d="M97,511.3c-2.7,0-4.8,2.2-4.8,4.8C97.7,517.6,98.3,515.9,97,511.3z"/>
	</g>
</g>
<g>
	<g>
		<path class="st1" d="M97.1,34.6c-1.6-3.2-3.8-6.1-6.3-8.7L82,29.1l0.3-9.3c-3.1-1.6-6.6-2.8-10.2-3.3l-5.3,7.7l-5.3-7.7
			c-3.6,0.6-7,1.7-10.2,3.3l0.3,9.3L42.8,26c-2.5,2.5-4.7,5.5-6.3,8.7l5.7,7.4l-9,2.6c-0.3,1.7-0.4,3.5-0.4,5.4s0.1,3.6,0.4,5.4
			l9,2.6l-5.7,7.4c1.6,3.2,3.8,6.1,6.3,8.7l8.8-3.1l-0.3,9.3c3.1,1.6,6.6,2.8,10.2,3.3l5.3-7.7l5.3,7.7c3.6-0.6,7-1.7,10.2-3.3
			L82,71l8.8,3.1c2.5-2.5,4.7-5.5,6.3-8.7L91.4,58l9-2.6c0.3-1.7,0.4-3.5,0.4-5.4s-0.1-3.6-0.4-5.4l-9-2.6L97.1,34.6z"/>
		<circle class="st1" cx="66.8" cy="50" r="12.8"/>
	</g>
</g>
<g>
	<polygon class="st1" points="102.1,183.2 87,163 88.4,183.2 	"/>
	<polygon class="st1" points="87,163 67.2,160.6 88.4,183.2 	"/>
	<polygon class="st1" points="88.4,183.2 67.2,160.6 46.3,183.2 	"/>
	<polygon class="st1" points="67.2,160.6 47.7,162.8 46.3,183.2 	"/>
	<polygon class="st1" points="46.3,183.2 67.1,224.6 88.4,183.2 	"/>
	<polygon class="st1" points="47.7,162.8 32.2,183.2 46.3,183.2 	"/>
	<polygon class="st1" points="88.4,183.2 67.1,224.6 102.1,183.2 	"/>
	<polygon class="st1" points="32.2,183.2 67.1,224.6 46.3,183.2 	"/>
</g>
<g>
	<path class="st1" d="M66.2,336.8c2.8,3.9,6,7.1,9.9,9.9"/>
	<path class="st1" d="M101.9,310.9c-2.8-2.8-17,6.9-31.8,21.6c-8.7,8.7-14.6,18.1-18,24.4c0.4,0.1,0.7,0.3,1.1,0.5
		c0.6,0.3,1.2,0.7,1.7,1.3c0.6,0.6,1,1.3,1.3,1.9c6.3-3.4,15.6-9.3,24.2-17.9C95.1,327.9,104.7,313.7,101.9,310.9z"/>
	<path class="st1" d="M56.8,363.7c0,2.5-2.3,4.6-4.7,6.5c-4,3.1-9.3,4.1-14.1,2.4c-2.6-0.9-4.9-2.2-6.2-3.8
		c6.3,0.7,8.1-0.4,11.5-7.9c1.7-3.8,6.3-5.5,9.9-3.5c0.6,0.3,1.2,0.7,1.7,1.3C56.7,360.4,56.8,362.6,56.8,363.7z"/>
</g>
<g>
	<polyline class="st1" points="49.8,-85.1 27.2,-103.2 49.8,-120.6 	"/>
	<polyline class="st1" points="84.5,-120.6 107.2,-102.5 84.5,-85.1 	"/>
	<line class="st1" x1="79.6" y1="-133.8" x2="55.1" y2="-73.8"/>
</g>
<path class="st0" d="M262.2-151.2h-62.8c-11.2,0-20.2,9.7-20.2,21.6v108.1h103.3v-108.1C282.5-141.5,273.4-151.2,262.2-151.2z"/>
<rect x="179.2" y="-150.9" class="st3" width="103.3" height="86.3"/>
<g>
	<line class="st4" x1="235.8" y1="-90.6" x2="262.8" y2="-90.6"/>
	<polyline class="st4" points="198.8,-123.3 225.8,-106.6 198.8,-90.6 	"/>
</g>
<g>
	<polyline class="st4" points="402.1,-90.6 381.3,-107.3 402.1,-123.3 	"/>
	<polyline class="st4" points="434.2,-123.3 455,-106.6 434.2,-90.6 	"/>
	<line class="st4" x1="429.6" y1="-135.5" x2="407.1" y2="-80.1"/>
</g>
<g>
	<line class="st4" x1="524.8" y1="-92.4" x2="551.8" y2="-92.4"/>
	<polyline class="st4" points="487.8,-125.1 514.8,-108.4 487.8,-92.4 	"/>
</g>
<text transform="matrix(1 0 0 1 396.9997 -151.4924)" class="st2" style="font-family:'Montserrat-Black'; font-size:12px;">Opción 1</text>
<text transform="matrix(1 0 0 1 490.9997 -151.4928)" class="st2" style="font-family:'Montserrat-Black'; font-size:12px;">Opción 2</text>
<path class="st1" d="M243.1,36.8l-12.2,0.6l0.6-12.2c-3.1-1.9-6.5-3.3-10.1-4.2l-8.2,9.1L205,21c-3.6,0.9-7,2.3-10.1,4.2l0.6,12.2
	l-12.2-0.6c-1.9,3.1-3.3,6.5-4.2,10.1l9.1,8.2l-9.1,8.2c0.9,3.6,2.3,7,4.2,10.1l12.2-0.6L194.9,85c3.1,1.9,6.5,3.3,10.1,4.2l8.2-9.1
	l8.2,9.1c3.6-0.9,7-2.3,10.1-4.2l-0.6-12.2l12.2,0.6c1.9-3.1,3.3-6.5,4.2-10.1l-9.1-8.2l9.1-8.2C246.4,43.3,245,39.9,243.1,36.8z"/>
<circle class="st1" cx="213.2" cy="55.1" r="10.6"/>
</svg>
