<svg id="Layer_1" data-name="Layer 1" xmlns="http://www.w3.org/2000/svg" viewBox="0 0 10 10"><defs><style>.cls-1,.cls-2{fill:#231f20;}.cls-1{opacity:0.05;}.cls-2{opacity:0.1;}</style></defs><title>pattern</title><path class="cls-1" d="M8.46,7.79V7.73A1.54,1.54,0,0,1,10,6.19V6.07h.13V5.64A1.78,1.78,0,0,0,8.46,3.86V3.8A1.54,1.54,0,0,1,10,2.26V2.2h.13V1.77a1.79,1.79,0,0,0-3.46-.66,1.8,1.8,0,0,0-3.34,0,1.79,1.79,0,0,0-3.46.66v.37H0v.12A1.54,1.54,0,0,1,1.54,3.8v.06A1.78,1.78,0,0,0-.13,5.64V6h0l0,.25H0A1.54,1.54,0,0,1,1.54,7.73v.06A1.78,1.78,0,0,0-.13,9.57V10H.13V9.57a1.54,1.54,0,1,1,3.08,0V10h.25V9.57a1.54,1.54,0,1,1,3.08,0V10h.25V9.57a1.55,1.55,0,0,1,3.09,0V10h.25V9.57A1.78,1.78,0,0,0,8.46,7.79ZM9.88,5.64V6A1.8,1.8,0,0,0,8.33,7.08,1.77,1.77,0,0,0,6.79,6V5.64a1.55,1.55,0,1,1,3.09,0ZM3.46,6V5.64a1.54,1.54,0,1,1,3.08,0V6A1.78,1.78,0,0,0,5,7.08,1.78,1.78,0,0,0,3.46,6Zm-.13-3.7A1.55,1.55,0,0,1,4.88,3.8v.06A1.8,1.8,0,0,0,3.33,5,1.77,1.77,0,0,0,1.79,3.86V3.8A1.54,1.54,0,0,1,3.33,2.26Zm3.34,0A1.54,1.54,0,0,1,8.21,3.8v.06A1.77,1.77,0,0,0,6.67,5,1.8,1.8,0,0,0,5.13,3.86V3.8A1.54,1.54,0,0,1,6.67,2.26Zm1.66-2A1.55,1.55,0,0,1,9.88,1.77V2A1.81,1.81,0,0,0,8.33,3.14,1.78,1.78,0,0,0,6.79,2V1.77A1.54,1.54,0,0,1,8.33.23ZM5,.23A1.54,1.54,0,0,1,6.54,1.77V2A1.79,1.79,0,0,0,5,3.14,1.79,1.79,0,0,0,3.46,2V1.77A1.54,1.54,0,0,1,5,.23ZM.13,2V1.77a1.54,1.54,0,0,1,3.08,0V2A1.78,1.78,0,0,0,1.67,3.14,1.8,1.8,0,0,0,.13,2ZM.13,6V5.64A1.55,1.55,0,0,1,1.67,4.09,1.55,1.55,0,0,1,3.21,5.64V6A1.77,1.77,0,0,0,1.67,7.08,1.8,1.8,0,0,0,.13,6Zm3.2,3A1.78,1.78,0,0,0,1.79,7.8V7.73a1.55,1.55,0,0,1,3.09,0V7.8A1.81,1.81,0,0,0,3.33,8.91Zm3.34,0A1.8,1.8,0,0,0,5.13,7.8V7.73a1.54,1.54,0,0,1,3.08,0V7.8A1.78,1.78,0,0,0,6.67,8.91Z"/><circle class="cls-2" cx="1.65" cy="1.34" r="0.24"/><circle class="cls-2" cy="3.29" r="0.24"/><circle class="cls-2" cx="3.33" cy="3.29" r="0.24"/><circle class="cls-2" cx="6.66" cy="3.29" r="0.24"/><circle class="cls-2" cx="9.99" cy="3.29" r="0.24"/><circle class="cls-2" cx="5" cy="1.34" r="0.24"/><circle class="cls-2" cx="8.35" cy="1.34" r="0.24"/><path class="cls-2" d="M1.88,5.25A.23.23,0,0,0,1.65,5a.23.23,0,0,0-.24.23.24.24,0,0,0,.24.24A.23.23,0,0,0,1.88,5.25Z"/><circle class="cls-2" cy="7.2" r="0.24"/><circle class="cls-2" cx="3.33" cy="7.2" r="0.24"/><circle class="cls-2" cx="6.66" cy="7.2" r="0.24"/><circle class="cls-2" cx="9.99" cy="7.2" r="0.24"/><path class="cls-2" d="M5,5a.23.23,0,0,0-.24.23.24.24,0,0,0,.48,0A.23.23,0,0,0,5,5Z"/><path class="cls-2" d="M8.12,5.25a.23.23,0,0,0,.23.24.24.24,0,0,0,.24-.24A.23.23,0,0,0,8.35,5,.23.23,0,0,0,8.12,5.25Z"/><circle class="cls-2" cx="1.65" cy="9.17" r="0.24"/><circle class="cls-2" cx="5" cy="9.17" r="0.24"/><circle class="cls-2" cx="8.35" cy="9.17" r="0.24"/></svg>