<svg xmlns="http://www.w3.org/2000/svg" viewBox="0 0 150 130"><defs><style>.cls-1{fill:#ff9e3e;}</style></defs><title>pen</title><g id="Layer_1" data-name="Layer 1"><path class="cls-1" d="M68.38,51c-.86-.08-1.72-.08-2.58-.15.07.86.07,1.72.14,2.58.86.07,1.72.07,2.58.14C68.45,52.82,68.38,51.88,68.38,51Z"/><path class="cls-1" d="M81.05,38.64c-10.24-1-23.08-5.26-32.76-9.08L64,45.26a52.63,52.63,0,0,0,6.89.4,2.67,2.67,0,0,1,2.08.78,2.58,2.58,0,0,1,.79,2.08,49.46,49.46,0,0,0,.5,7.88,3,3,0,0,1-.79,2.29,2.63,2.63,0,0,1-1.93.78h-.36a64.55,64.55,0,0,0-7.88-.5,2.76,2.76,0,0,1-2.07-.78,2.55,2.55,0,0,1-.79-2.08,48,48,0,0,0-.38-7L44.4,33.47c3.79,9.66,8.06,22.45,9.08,32.74l21,3.65L84.7,59.62Z"/><path class="cls-1" d="M89.76,62.23a4,4,0,0,1-.26.32L77.33,74.73,77,75l-2,2,2.72,2.72L94.51,62.91l-2.72-2.72Z"/><path class="cls-1" d="M98.52.68H35.73C24.56.68,15.5,10.37,15.5,22.32V130.38H118.75V22.32C118.75,10.37,109.69.68,98.52.68Zm1.79,64.24L79.69,85.54a2.76,2.76,0,0,1-3.87,0L69.24,79a2.76,2.76,0,0,1,0-3.87l.52-.52L50.41,71.22a2.77,2.77,0,0,1-2.3-2.58c-.93-16.47-12.53-42.53-14.6-46.18a2.71,2.71,0,0,1,.28-3.15,2.67,2.67,0,0,1,2.8-.93,2,2,0,0,1,.86.42C41,20.74,67,32.41,83.49,33.34a2.74,2.74,0,0,1,2.57,2.29l3.33,19.3.47-.47a2.79,2.79,0,0,1,3.87,0l6.58,6.59A2.73,2.73,0,0,1,100.31,64.92Z"/></g></svg>