<svg xmlns="http://www.w3.org/2000/svg" viewBox="0 0 135 130.03"><defs><style>.cls-1{fill:#ff9e3e;}</style></defs><title>proto</title><g id="Layer_1" data-name="Layer 1"><path class="cls-1" d="M93.65,2.3H34.55a19.05,19.05,0,0,0-19,19.05V130h97.2V21.35A19.05,19.05,0,0,0,93.65,2.3ZM48,18.34a5.85,5.85,0,1,1-5.93,5.85A5.87,5.87,0,0,1,48,18.34Zm39.73,56c-6,0-8.91-3.58-8.91-8.47a15.4,15.4,0,0,1,.61-4.37l2.88-10.3A10.45,10.45,0,0,0,82.73,48c0-3.32-2-5.33-5.24-5.33-4.1,0-6.81,2.95-8.21,8.62L63.69,73.74H53.92l1.75-7c-2.87,4.73-6.87,7.65-11.79,7.65-5.94,0-8.73-3.42-8.73-8.57a20.08,20.08,0,0,1,.52-4.4h0l4.45-18.19H33.23l2.09-7.73H51.91l-6.55,26a16.74,16.74,0,0,0-.61,4c0,1.66.82,2.15,2.1,2.44.78.17,7,0,10.36-7.46l4.3-17.22h-7l2.09-7.73H71.55l-1.92,8.78c2.62-4.89,7.86-9.54,13-9.54,5.5,0,10,3.92,10,11.43a22,22,0,0,1-1,6.36l-2.79,10a11.73,11.73,0,0,0-.44,2.71c0,1.75.7,2.62,2,2.62s3-1,4.89-6.29l3.84,1.49C97,71,92.86,74.31,87.71,74.31Z"/></g></svg>