<svg id="Layer_1" data-name="Layer 1" xmlns="http://www.w3.org/2000/svg" viewBox="0 0 150 130"><defs><style>.cls-1{fill:#ff9e3e;}.cls-2{fill:none;stroke:#fff;stroke-linecap:round;stroke-linejoin:round;stroke-width:2px;}</style></defs><title>proto</title><path class="cls-1" d="M98.5.3H35.7C24.5.3,15.5,10,15.5,21.9V130H118.8V21.9C118.8,10,109.7.3,98.5.3Z"/><path class="cls-2" d="M87.86,66.29l7.94.45,2.43-6.68-6.55-4.9a28.11,28.11,0,0,0,.16-2.92,27.36,27.36,0,0,0-.25-3.64L98,43.79,95.61,37.1l-8.15.47a26.62,26.62,0,0,0-4.29-5.06L85,24.77l-6.16-3.56-5.79,5.45a27.21,27.21,0,0,0-6.79-1.19l-3.47-6.89-7,1.24-.9,7.62a26.34,26.34,0,0,0-6.26,3.62l-6.83-2.94-4.57,5.45,4.08,6.22a27,27,0,0,0-2.52,7l-6.94,2.09V56l7.06,2.12a26.74,26.74,0,0,0,2.67,7l-4,6.06,4.57,5.45,6.88-3a26.66,26.66,0,0,0,6.43,3.54l.88,7.39,7,1.23L66.84,79a26.6,26.6,0,0,0,6.88-1.38l5.62,5.28,6.16-3.55-1.84-7.81A27.15,27.15,0,0,0,87.86,66.29ZM47.66,52.24A17.38,17.38,0,1,1,65,69.62,17.38,17.38,0,0,1,47.66,52.24Z"/></svg>