<svg id="Layer_1" data-name="Layer 1" xmlns="http://www.w3.org/2000/svg" viewBox="0 0 150 130"><defs><style>.cls-1{fill:#ff9e3e;}.cls-2{fill:none;stroke:#fff;stroke-linecap:round;stroke-linejoin:round;stroke-width:2px;}</style></defs><title>psd</title><path class="cls-1" d="M98.5.3H35.7C24.5.3,15.5,10,15.5,21.9V130H118.8V21.9C118.8,10,109.7.3,98.5.3Z"/><path class="cls-2" d="M67.13,45.76A43.58,43.58,0,0,0,77.36,56"/><path class="cls-2" d="M104,19c-2.9-2.9-17.57,7.13-32.87,22.32A110.83,110.83,0,0,0,52.55,66.53a5.52,5.52,0,0,1,1.14.52,5.36,5.36,0,0,1,1.76,1.34,7.41,7.41,0,0,1,1.34,2,110.06,110.06,0,0,0,25-18.5C97,36.56,106.92,21.88,104,19Z"/><path class="cls-2" d="M57.41,73.56c0,2.59-2.38,4.76-4.86,6.72A15.39,15.39,0,0,1,38,82.76a14.36,14.36,0,0,1-6.41-3.93c6.51.73,8.37-.41,11.89-8.16a7.4,7.4,0,0,1,10.23-3.62,5.36,5.36,0,0,1,1.76,1.34A6.83,6.83,0,0,1,57.41,73.56Z"/></svg>