<svg xmlns="http://www.w3.org/2000/svg" viewBox="0 0 135 130.03"><defs><style>.cls-1{fill:#ff9e3e;}</style></defs><title>psd</title><g id="Layer_1" data-name="Layer 1"><path class="cls-1" d="M48.88,56.9c.42.4.85.79,1.31,1.15a25.91,25.91,0,0,1,.46-2.91V39a17.11,17.11,0,0,0-1.77.21Z"/><path class="cls-1" d="M56.88,70.49h14.7a21.26,21.26,0,0,0,1-2.18H55.91A23.67,23.67,0,0,0,56.88,70.49Z"/><path class="cls-1" d="M46.22,53.87A22.58,22.58,0,0,0,48,56V39.37c-.6.12-1.19.27-1.77.44Z"/><path class="cls-1" d="M58.93,73.75h10.6A21.19,21.19,0,0,0,71,71.58H57.46A20.15,20.15,0,0,0,58.93,73.75Z"/><path class="cls-1" d="M62,77h4.47a21.46,21.46,0,0,0,2.19-2.18H59.8A22.64,22.64,0,0,0,62,77Z"/><path class="cls-1" d="M43.56,49a22.7,22.7,0,0,0,1.77,3.56V40.09q-.9.3-1.77.69Z"/><path class="cls-1" d="M64.23,78.75c.31-.2.59-.43.88-.64H63.36C63.65,78.32,63.93,78.55,64.23,78.75Z"/><path class="cls-1" d="M51.54,39V52a25.15,25.15,0,0,1,1.77-4V39c-.35,0-.69-.05-1-.05Z"/><path class="cls-1" d="M78,24.78H49.58A22.43,22.43,0,0,0,47.4,27H80.18A21.36,21.36,0,0,0,78,24.78Z"/><path class="cls-1" d="M73,21.52H54.56a21.74,21.74,0,0,0-3.62,2.18h25.7A21.74,21.74,0,0,0,73,21.52Z"/><path class="cls-1" d="M63.79,19.45a21.84,21.84,0,0,0-6.4,1h12.8A21.79,21.79,0,0,0,63.79,19.45Z"/><path class="cls-1" d="M43.11,34.58c-.19.58-.35,1.18-.49,1.78a26.22,26.22,0,0,1,7.88-1.78Z"/><path class="cls-1" d="M42.67,46.15v-5l-.58.29A22.35,22.35,0,0,0,42.67,46.15Z"/><path class="cls-1" d="M81.08,28.05H46.51a21.62,21.62,0,0,0-1.44,2.18H82.52A23.48,23.48,0,0,0,81.08,28.05Z"/><path class="cls-1" d="M83.12,31.31H44.46a22.11,22.11,0,0,0-1,2.18H84.08A23.6,23.6,0,0,0,83.12,31.31Z"/><path class="cls-1" d="M55.11,65.8c.12.49.27,1,.42,1.42h6.7A25.87,25.87,0,0,1,55.11,65.8Z"/><path class="cls-1" d="M82.54,52.07a21.45,21.45,0,0,0,1.78-3.86V40.52c-.58-.23-1.17-.44-1.78-.62Z"/><path class="cls-1" d="M79.89,55.69a20.26,20.26,0,0,0,1.77-2.24V39.65a17.42,17.42,0,0,0-1.77-.39Z"/><path class="cls-1" d="M77.23,52.92a25.36,25.36,0,0,1,1,4.45c.27-.24.54-.49.8-.75V39.13c-.58-.08-1.17-.13-1.77-.16Z"/><path class="cls-1" d="M85.2,40.91v3.82a21.09,21.09,0,0,0,.3-3.58V41Z"/><path class="cls-1" d="M93.79,2.3H34.68a19,19,0,0,0-19,19.05V130h97.19V21.35A19,19,0,0,0,93.79,2.3ZM78.93,86.64a26,26,0,0,1-14.7-2.77A26.12,26.12,0,0,1,37.76,38.92,26.11,26.11,0,0,1,87.5,30.23h.13v.28a26,26,0,0,1,2.14,7.81A26.13,26.13,0,0,1,78.93,86.64Z"/><path class="cls-1" d="M77.76,34.58A26.1,26.1,0,0,1,84.87,36c-.11-.48-.26-1-.41-1.42Z"/><path class="cls-1" d="M74.57,39v8a25.37,25.37,0,0,1,1.77,3.44V39H76.2C75.65,38.94,75.11,39,74.57,39Z"/><path class="cls-1" d="M64.23,42.54a21.73,21.73,0,0,0-9.74,18.11v.11a21.63,21.63,0,0,0,19.2-.3V57.15A21.75,21.75,0,0,0,64.23,42.54Z"/><path class="cls-1" d="M56.85,39.45V43.1c.56-.62,1.16-1.21,1.77-1.77V39.91C58,39.73,57.45,39.58,56.85,39.45Z"/><path class="cls-1" d="M62.85,36.75h2.77a26,26,0,0,1,8.77-2.17H54.08A26,26,0,0,1,62.85,36.75Z"/><path class="cls-1" d="M72.94,67.22c.19-.58.36-1.18.5-1.78a25.79,25.79,0,0,1-7.87,1.78Z"/><path class="cls-1" d="M56,39.26c-.58-.1-1.17-.18-1.77-.23v7.54c.55-.84,1.14-1.66,1.77-2.44Z"/><path class="cls-1" d="M59.51,40.56a3.88,3.88,0,0,1,.31-.26l-.31-.1Z"/><path class="cls-1" d="M71.91,43.44a25.72,25.72,0,0,1,1.78,2.24V39.1c-.6.07-1.19.16-1.78.28Z"/><path class="cls-1" d="M69.25,40.1v.71c.62.53,1.21,1.08,1.78,1.67v-2.9C70.43,39.73,69.83,39.9,69.25,40.1Z"/></g></svg>