<svg id="Layer_1" data-name="Layer 1" xmlns="http://www.w3.org/2000/svg" viewBox="0 0 150 130"><defs><style>.cls-1{fill:#ff9e3e;}.cls-2{fill:none;stroke:#fff;stroke-linecap:round;stroke-linejoin:round;stroke-width:2px;}</style></defs><title>sketch</title><path class="cls-1" d="M98.5.3H35.7C24.5.3,15.5,10,15.5,21.9V130H118.8V21.9C118.8,10,109.7.3,98.5.3Z"/><polygon class="cls-2" points="104.67 41.98 88.46 20.3 89.96 41.98 104.67 41.98"/><polygon class="cls-2" points="88.46 20.3 67.2 17.73 89.96 41.98 88.46 20.3"/><polygon class="cls-2" points="89.96 41.98 67.2 17.73 44.77 41.98 89.96 41.98"/><polygon class="cls-2" points="67.2 17.73 46.27 20.09 44.77 41.98 67.2 17.73"/><polygon class="cls-2" points="44.77 41.98 67.1 86.42 89.96 41.98 44.77 41.98"/><polygon class="cls-2" points="46.27 20.09 29.63 41.98 44.77 41.98 46.27 20.09"/><polygon class="cls-2" points="89.96 41.98 67.1 86.42 104.67 41.98 89.96 41.98"/><polygon class="cls-2" points="29.63 41.98 67.1 86.42 44.77 41.98 29.63 41.98"/></svg>