<?xml version="1.0" encoding="utf-8"?>
<!-- Generator: Adobe Illustrator 22.0.1, SVG Export Plug-In . SVG Version: 6.00 Build 0)  -->
<svg version="1.1" id="Layer_1" xmlns="http://www.w3.org/2000/svg" xmlns:xlink="http://www.w3.org/1999/xlink" x="0px" y="0px"
	 viewBox="0 0 135 130" style="enable-background:new 0 0 135 130;" xml:space="preserve">
<style type="text/css">
	.st0{fill:#FF9E3E;}
</style>
<title>sketch</title>
<g id="Layer_1_1_">
	<path class="st0" d="M93.7,2.3H34.5c-10.5,0-19,8.5-19,19V130h97.2V21.4C112.8,10.8,104.2,2.3,93.7,2.3C93.7,2.3,93.7,2.3,93.7,2.3
		z M102.7,38.1c0,0.1-0.1,0.2-0.1,0.4c0,0,0,0.1-0.1,0.1c0,0,0,0.1-0.1,0.1L65.2,85.6l0,0c-0.1,0.1-0.3,0.2-0.4,0.3h-0.1
		C64.5,86,64.3,86,64.1,86c-0.2,0-0.4,0-0.5-0.1h-0.1c-0.2-0.1-0.3-0.2-0.4-0.3l0,0L25.8,38.6l-0.1-0.1c0,0,0-0.1-0.1-0.1
		c-0.1-0.1-0.1-0.2-0.1-0.4V38c0-0.2,0-0.3,0-0.5c0,0,0-0.1,0-0.1c0-0.1,0-0.2,0.1-0.2l0.1-0.1V37l10.4-14.5
		c0.1-0.2,0.3-0.3,0.6-0.4c0.1-0.3,0.4-0.6,0.7-0.7l12.7-5.5c0.2-0.1,0.4-0.1,0.5-0.1h26.9c0.2,0,0.4,0,0.5,0.1l12.8,5.5
		c0.3,0.1,0.6,0.4,0.7,0.7c0.2,0.1,0.4,0.2,0.6,0.4L102.5,37c0,0,0,0,0,0.1c0,0,0.1,0.1,0.1,0.1c0,0.1,0.1,0.1,0.1,0.2v0.1
		C102.7,37.7,102.7,37.8,102.7,38.1C102.6,38,102.7,38.1,102.7,38.1z M43.4,51.7L32.7,43l20.5,25.8l-9.6-16.5
		C43.5,52.1,43.4,51.9,43.4,51.7z M49.4,30.4l-11.2-6.1l-8.8,12.4h0.1l15.3,12.5L49.4,30.4z M47.2,53l16.9,29L81,53H47.2z
		 M77.2,28.1l10-5.4l-9.9-4.3H50.9L41,22.7l10,5.4H77.2z M47.2,50.2h34.5l-5.6-19.3H52.1L47.2,50.2z M84.6,52.3L75,68.8L95.5,43
		l-10.7,8.7C84.8,51.9,84.7,52.1,84.6,52.3z M78.9,30.4l5.3,18.3l14.6-11.9h0.1L90,24.3L78.9,30.4z"/>
</g>
</svg>
