<svg id="Layer_1" data-name="Layer 1" xmlns="http://www.w3.org/2000/svg" viewBox="0 0 150 130"><defs><style>.cls-1{fill:#ff9e3e;}.cls-2{fill:none;stroke:#fff;stroke-linecap:round;stroke-linejoin:round;stroke-width:2px;}.cls-3{fill:#fff;}</style></defs><title>wireframing</title><path class="cls-1" d="M98.5.3H35.7C24.5.3,15.5,10,15.5,21.9V130H118.8V21.9C118.8,10,109.7.3,98.5.3Z"/><path class="cls-2" d="M67.71,64.55,48.12,84.35a1.69,1.69,0,0,1-2.48,0L36,74.65a1.68,1.68,0,0,1,0-2.47L55.34,52.59"/><path class="cls-2" d="M68.33,39.39l19.49-19.7a2.93,2.93,0,0,1,4.12,0l8,8.15A2.91,2.91,0,0,1,100,32l-.61.62L80.91,51.25"/><line class="cls-2" x1="92.46" y1="32.17" x2="95.86" y2="35.57"/><line class="cls-2" x1="86.58" y1="38.15" x2="89.98" y2="41.55"/><line class="cls-2" x1="80.7" y1="44.03" x2="84.1" y2="47.53"/><line class="cls-2" x1="60.08" y1="64.86" x2="63.48" y2="68.36"/><line class="cls-2" x1="54.1" y1="70.84" x2="57.5" y2="74.34"/><line class="cls-2" x1="48.22" y1="76.82" x2="51.62" y2="80.22"/><polygon class="cls-2" points="95.86 67.23 82.97 80.12 48.12 44.96 61.01 32.07 95.86 67.23"/><path class="cls-2" d="M60.8,32.17,48.32,44.75a2.93,2.93,0,0,1-4.12,0h0a3,3,0,0,1,0-4.23L56.68,27.94a2.93,2.93,0,0,1,4.12,0h0A3.06,3.06,0,0,1,60.8,32.17Z"/><path class="cls-2" d="M56.78,27.84l-12.89,13-6.6-6.6a4,4,0,0,1,0-5.67l7.22-7.22a4.06,4.06,0,0,1,5.67,0Z"/><line class="cls-2" x1="54.51" y1="38.46" x2="89.36" y2="73.73"/><polygon class="cls-2" points="82.97 80.12 99.37 83.73 95.86 67.23 82.97 80.12"/><path class="cls-3" d="M99.37,78.68a4.94,4.94,0,0,0-5,4.94C100.09,85.17,100.71,83.42,99.37,78.68Z"/></svg>