<svg xmlns="http://www.w3.org/2000/svg" viewBox="0 0 135 130.03"><defs><style>.cls-1{fill:#ff9e3e;}</style></defs><title>wireframing</title><g id="Layer_1" data-name="Layer 1"><path class="cls-1" d="M15.5,28V130h97.2V28ZM26.83,41.18a4.74,4.74,0,0,1,4.74-4.74H60.69a4.74,4.74,0,0,1,4.74,4.74v14.7a4.75,4.75,0,0,1-4.74,4.75H31.57a4.75,4.75,0,0,1-4.74-4.75ZM51,86.1a4.74,4.74,0,0,1-4.74,4.74H31.57a4.74,4.74,0,0,1-4.74-4.74V71.39a4.75,4.75,0,0,1,4.74-4.74H46.28A4.74,4.74,0,0,1,51,71.39Zm46.34,0a4.74,4.74,0,0,1-4.74,4.74H63.51a4.74,4.74,0,0,1-4.74-4.74V71.39a4.74,4.74,0,0,1,4.74-4.74H92.62a4.74,4.74,0,0,1,4.74,4.74Zm0-30.22a4.75,4.75,0,0,1-4.74,4.75H77.91a4.75,4.75,0,0,1-4.74-4.75V41.18a4.74,4.74,0,0,1,4.74-4.74H92.62a4.74,4.74,0,0,1,4.74,4.74Z"/><path class="cls-1" d="M93.65,2.3H34.55a19.05,19.05,0,0,0-19,19.05V25h97.2V21.35A19.05,19.05,0,0,0,93.65,2.3ZM31.11,21.49a3.75,3.75,0,1,1,3.75-3.75A3.75,3.75,0,0,1,31.11,21.49Zm10.17,0A3.75,3.75,0,1,1,45,17.74,3.75,3.75,0,0,1,41.28,21.49Zm10.17,0a3.75,3.75,0,1,1,3.75-3.75A3.74,3.74,0,0,1,51.45,21.49Z"/></g></svg>